<?xml version="1.0" standalone="no"?>
<!DOCTYPE svg PUBLIC "-//W3C//DTD SVG 20010904//EN"
 "http://www.w3.org/TR/2001/REC-SVG-20010904/DTD/svg10.dtd">
<svg version="1.0" xmlns="http://www.w3.org/2000/svg"
 width="768.000000pt" height="624.000000pt" viewBox="0 0 768.000000 624.000000"
 preserveAspectRatio="xMidYMid meet">
<metadata>
Created by potrace 1.15, written by Peter Selinger 2001-2017
</metadata>
<g transform="translate(0.000000,624.000000) scale(0.100000,-0.100000)"
fill="#000000" stroke="none">
<path d="M329 6170 c-100 -17 -188 -86 -233 -185 l-26 -57 0 -2249 0 -2249
3750 0 3750 0 0 2223 c0 2452 5 2275 -61 2379 -34 53 -78 90 -147 121 l-47 22
-3470 1 c-1909 1 -3491 -2 -3516 -6z m2801 -273 c0 -2 14 -42 31 -88 34 -93
59 -172 56 -175 -1 -1 -94 -47 -207 -102 -113 -56 -216 -112 -229 -125 -22
-24 -22 -26 -5 -58 9 -19 45 -64 79 -101 125 -135 185 -306 185 -527 0 -441
-262 -786 -690 -910 -76 -22 -286 -51 -374 -51 l-48 0 -152 -142 c-83 -79
-233 -219 -333 -312 -101 -94 -181 -171 -179 -173 2 -2 174 3 382 12 447 18
824 19 949 4 305 -37 453 -132 567 -362 100 -201 89 -463 -26 -637 -64 -96
-253 -275 -443 -417 l-88 -65 -112 117 c-62 65 -113 121 -113 124 0 3 30 38
66 76 112 118 210 256 224 315 50 206 -74 394 -321 490 -159 61 -197 65 -594
63 -198 -1 -475 -7 -615 -12 -140 -5 -258 -6 -263 -2 -4 4 -19 69 -34 145
l-27 138 29 26 c17 14 124 115 240 226 115 111 266 255 335 320 128 123 140
136 120 136 -6 0 -48 17 -93 37 -434 195 -670 624 -576 1046 24 110 96 265
163 354 101 134 279 270 437 334 146 59 251 81 419 86 137 4 169 2 280 -20 69
-14 169 -31 223 -38 123 -16 123 -16 462 146 246 117 275 130 275 122z m890
-469 l1 -283 42 80 c157 297 374 439 692 452 428 18 860 -239 1038 -617 107
-229 154 -529 136 -870 -34 -657 -380 -1184 -866 -1322 -145 -41 -405 -27
-588 33 -205 67 -334 186 -369 343 -6 27 -17 51 -24 54 -9 3 -12 -161 -12
-787 l0 -791 -229 0 -229 0 -6 343 c-4 188 -6 1046 -4 1906 l3 1564 195 88
c107 48 201 88 208 88 9 1 12 -62 12 -281z m2780 -1188 l0 -1360 -205 0 -205
0 0 1275 0 1274 51 23 c29 12 120 50 203 84 83 34 152 62 154 63 1 0 2 -611 2
-1359z"/>
<path d="M1850 5436 c-222 -41 -399 -228 -466 -494 -112 -443 165 -902 546
-906 147 -1 272 56 387 178 128 134 195 309 196 516 2 147 -20 246 -79 369
-37 76 -61 109 -127 176 -96 97 -174 141 -287 161 -88 16 -86 16 -170 0z"/>
<path d="M4595 5411 c-84 -30 -131 -58 -194 -117 -232 -215 -351 -581 -351
-1079 1 -387 67 -671 198 -846 104 -141 225 -206 426 -230 79 -10 100 -9 151
5 365 104 627 626 628 1246 1 314 -77 579 -230 786 -90 121 -190 194 -317 233
-88 27 -237 28 -311 2z"/>
<path d="M70 920 l0 -420 3750 0 3750 0 -2 418 -3 417 -3747 3 -3748 2 0 -420z
m3560 75 l0 -255 -24 0 c-13 0 -26 5 -28 12 -3 8 -11 7 -28 -5 -45 -31 -115
-19 -152 27 -14 17 -18 42 -18 139 0 117 0 119 28 147 37 37 89 47 131 26 l31
-17 0 91 0 90 30 0 30 0 0 -255z m-2522 198 c37 -28 39 -34 13 -57 -19 -17
-21 -17 -54 8 -20 15 -47 26 -65 26 -36 0 -72 -30 -72 -59 0 -26 34 -66 72
-84 18 -9 56 -36 84 -61 58 -51 72 -90 54 -156 -9 -32 -19 -44 -50 -60 -76
-39 -178 -19 -221 42 -21 28 -21 30 -3 43 26 20 28 19 62 -15 25 -25 39 -30
76 -30 33 0 52 6 66 20 41 41 21 78 -78 143 -101 68 -116 87 -116 152 -1 46 3
59 25 81 49 49 146 53 207 7z m3152 -218 l0 -245 -30 0 -30 0 0 245 0 245 30
0 30 0 0 -245z m720 103 c0 -11 -8 -22 -18 -24 -15 -4 -17 -15 -14 -82 4 -72
2 -79 -22 -101 -20 -19 -40 -26 -86 -29 -33 -2 -63 -8 -65 -12 -11 -18 10 -41
49 -51 22 -7 66 -20 96 -29 l55 -17 0 -53 c-1 -45 -5 -56 -29 -76 -23 -21 -37
-24 -105 -24 -103 0 -131 19 -131 89 0 34 5 53 19 65 18 17 18 19 3 47 -16 27
-16 31 1 60 16 29 16 33 2 49 -19 21 -21 139 -2 162 35 44 103 61 147 38 13
-7 28 -6 52 4 38 16 48 13 48 -16z m-3585 -4 c30 -19 45 -56 45 -109 l0 -44
-52 -10 c-29 -6 -70 -13 -91 -17 -37 -6 -38 -8 -35 -43 4 -47 51 -75 101 -59
18 5 39 12 48 15 26 8 33 -28 10 -50 -27 -28 -117 -35 -159 -13 -52 27 -64 63
-60 181 2 86 6 107 23 125 44 49 116 59 170 24z m273 17 c8 -4 12 -19 10 -32
-2 -19 -8 -23 -29 -21 -16 1 -33 -6 -45 -19 -16 -18 -20 -40 -23 -150 l-3
-129 -29 0 -29 0 0 175 0 175 25 0 c19 0 25 -5 25 -22 0 -19 2 -20 13 -6 25
32 62 44 85 29z m695 -4 c18 -8 38 -21 46 -31 12 -14 11 -19 -4 -36 -17 -19
-18 -19 -43 0 -35 28 -67 25 -92 -7 -19 -25 -21 -38 -18 -110 2 -60 8 -87 20
-99 20 -20 61 -21 94 -3 21 11 27 10 41 -4 16 -16 16 -18 -4 -38 -25 -26 -101
-36 -141 -20 -49 20 -62 57 -62 171 0 110 12 148 52 167 53 26 68 27 111 10z
m462 -1 c56 -24 75 -66 75 -169 0 -103 -16 -149 -59 -171 -62 -32 -156 -10
-181 42 -18 38 -24 169 -11 219 20 75 100 111 176 79z m288 1 c46 -20 59 -38
42 -60 -13 -18 -15 -18 -43 -2 -48 29 -102 3 -86 -40 3 -8 29 -28 58 -45 73
-41 91 -63 90 -113 -1 -33 -8 -47 -34 -70 -30 -26 -38 -29 -87 -25 -42 4 -60
11 -81 31 -24 24 -25 28 -11 42 14 14 19 13 55 -6 28 -16 48 -20 68 -15 24 6
27 11 24 39 -2 24 -11 37 -37 52 -19 11 -52 37 -74 58 -35 33 -39 41 -34 73 7
43 22 63 62 80 38 17 49 17 88 1z m762 -1 c44 -19 75 -69 75 -122 l0 -42 -96
-18 -96 -18 6 -35 c3 -20 13 -42 23 -48 21 -16 74 -17 108 -1 21 9 29 9 42 -5
21 -21 6 -41 -44 -58 -57 -18 -120 -6 -156 30 -30 29 -31 35 -35 128 -4 115
11 155 68 185 42 22 60 22 105 4z m705 1 c47 -23 60 -68 60 -214 l0 -133 -30
0 -30 0 -1 118 c-1 164 -13 193 -73 178 -50 -12 -66 -57 -66 -183 l0 -113 -30
0 -30 0 2 172 c3 162 4 173 22 176 11 3 25 -4 32 -13 12 -16 15 -16 40 4 30
24 67 27 104 8z m637 -12 c29 -19 53 -71 53 -115 0 -35 -9 -40 -117 -60 -70
-13 -73 -14 -73 -42 0 -62 76 -91 136 -53 19 12 24 12 39 -5 21 -23 15 -33
-29 -54 -72 -34 -162 -11 -190 49 -25 51 -22 200 4 243 36 59 117 76 177 37z
m323 12 c47 -23 60 -68 60 -214 l0 -133 -35 0 -35 0 0 134 c0 109 -3 138 -16
150 -22 23 -48 20 -81 -8 -28 -24 -28 -26 -31 -150 l-4 -126 -29 0 -29 0 0
175 0 175 25 0 c14 0 28 -6 31 -14 5 -12 11 -11 37 5 37 22 71 24 107 6z m474
-2 c42 -20 66 -63 66 -118 l0 -45 -90 -17 -90 -17 0 -33 c0 -19 8 -39 19 -49
22 -20 87 -24 104 -7 17 17 45 13 56 -7 8 -16 4 -22 -28 -40 -45 -26 -109 -29
-151 -7 -47 24 -60 61 -60 173 0 111 13 141 74 168 41 17 61 17 100 -1z m301
4 c4 -5 4 -22 0 -36 -4 -19 -11 -24 -25 -20 -11 3 -30 -3 -43 -13 -21 -17 -22
-27 -25 -155 l-4 -136 -26 3 -27 3 -3 178 -2 177 24 0 c14 0 28 -5 31 -10 4
-6 16 -5 33 5 32 17 58 19 67 4z m389 -3 c47 -19 56 -55 56 -212 l0 -134 -24
0 c-13 0 -26 5 -28 12 -3 8 -11 7 -28 -5 -36 -25 -93 -22 -126 6 -25 21 -27
31 -28 93 l-1 69 65 12 c115 22 110 20 110 56 0 57 -34 71 -104 42 -41 -17
-56 -13 -56 14 0 23 63 55 118 60 7 0 28 -5 46 -13z m-4924 -51 c9 -27 27 -83
39 -122 12 -40 24 -73 26 -73 4 0 8 14 51 158 26 88 29 92 56 92 15 0 28 -4
28 -8 0 -5 -22 -78 -50 -163 -27 -85 -50 -160 -50 -166 0 -8 -13 -13 -32 -13
l-33 0 -53 163 c-29 89 -53 168 -52 175 0 8 10 12 26 10 22 -2 29 -12 44 -53z
m330 -120 l0 -175 -30 0 -30 0 0 175 0 175 30 0 30 0 0 -175z m450 0 l0 -175
-30 0 -30 0 0 175 0 175 30 0 30 0 0 -175z m3198 -2 l2 -173 -30 0 -30 0 0
176 0 175 28 -3 27 -3 3 -172z m680 0 l2 -173 -30 0 -30 0 0 176 0 175 28 -3
27 -3 3 -172z"/>
<path d="M3457 1022 c-13 -15 -17 -39 -17 -113 0 -106 6 -119 57 -119 57 0 73
27 73 123 0 74 -3 86 -23 105 -28 27 -68 28 -90 4z"/>
<path d="M4810 1043 c-43 -16 -56 -97 -20 -133 25 -25 72 -26 93 -2 20 22 23
91 5 115 -14 18 -55 29 -78 20z"/>
<path d="M2726 1024 c-21 -20 -23 -206 -3 -222 32 -26 102 -14 111 20 3 13 6
58 6 101 0 64 -3 80 -20 97 -24 24 -72 26 -94 4z"/>
<path d="M70 363 c0 -50 49 -151 96 -198 20 -21 62 -49 93 -64 l56 -26 3480
-3 c3216 -2 3484 -1 3533 14 126 40 211 139 236 277 l7 37 -3751 0 -3750 0 0
-37z"/>
</g>
</svg>
